<?xml version="1.0" standalone="no"?>
<!DOCTYPE svg PUBLIC "-//W3C//DTD SVG 20010904//EN"
 "http://www.w3.org/TR/2001/REC-SVG-20010904/DTD/svg10.dtd">
<svg version="1.0" xmlns="http://www.w3.org/2000/svg"
 width="158.000000pt" height="106.000000pt" viewBox="0 0 158.000000 106.000000"
 preserveAspectRatio="xMidYMid meet">

<g transform="translate(0.000000,106.000000) scale(0.100000,-0.100000)"
fill="#000000" stroke="none">
<path d="M756 923 c-3 -3 -7 -27 -7 -52 l-2 -46 -7 40 c-6 38 -9 37 -23 -5 -4
-12 -6 -11 -6 3 -1 15 -4 15 -21 5 -11 -7 -20 -19 -20 -27 0 -11 -4 -10 -15 5
-17 21 -17 16 5 -57 l13 -45 89 1 90 1 19 55 c22 65 21 59 10 59 -5 0 -14 -12
-20 -27 l-11 -28 5 28 c5 27 -9 38 -18 15 -3 -7 -6 -2 -6 12 -1 27 -16 17 -24
-15 -2 -11 -3 -5 -1 12 3 33 -10 54 -19 31 -3 -7 -6 -3 -6 9 -1 23 -14 37 -25
26z m21 -130 c-2 -16 -4 -5 -4 22 0 28 2 40 4 28 2 -13 2 -35 0 -50z m-80 35
c-3 -8 -6 -5 -6 6 -1 11 2 17 5 13 3 -3 4 -12 1 -19z m30 -25 c-3 -10 -5 -4
-5 12 0 17 2 24 5 18 2 -7 2 -21 0 -30z m100 5 c-3 -8 -6 -5 -6 6 -1 11 2 17
5 13 3 -3 4 -12 1 -19z m-120 -20 c-3 -8 -6 -5 -6 6 -1 11 2 17 5 13 3 -3 4
-12 1 -19z m90 0 c-3 -8 -6 -5 -6 6 -1 11 2 17 5 13 3 -3 4 -12 1 -19z"/>
<path d="M555 820 c-3 -6 2 -10 12 -11 13 0 12 -3 -7 -10 -20 -8 -22 -12 -10
-19 12 -8 10 -10 -9 -10 -16 0 -22 4 -17 15 3 9 0 15 -7 15 -17 0 -56 -29 -39
-30 18 0 15 -30 -4 -30 -8 0 -13 4 -10 8 2 4 -4 14 -15 20 -17 11 -21 9 -28
-10 -5 -15 -5 -26 3 -30 8 -5 7 -11 -3 -20 -9 -9 -15 -10 -18 -2 -5 15 -50 5
-57 -13 -7 -17 0 -33 14 -33 5 0 7 7 4 15 -5 11 1 15 25 15 20 0 35 7 43 20 7
11 22 20 34 20 12 0 27 7 34 15 7 8 25 15 41 15 16 0 29 5 29 11 0 7 11 8 29
4 17 -3 32 -2 36 4 4 7 -3 10 -17 8 -13 -1 -22 3 -21 9 2 15 -35 36 -42 24z"/>
<path d="M950 820 c0 -5 5 -10 11 -10 5 0 7 5 4 10 -3 6 -8 10 -11 10 -2 0 -4
-4 -4 -10z"/>
<path d="M1020 816 c0 -2 7 -6 15 -10 8 -3 15 -1 15 4 0 6 -7 10 -15 10 -8 0
-15 -2 -15 -4z"/>
<path d="M927 795 c5 -15 2 -17 -17 -12 -15 4 -20 3 -13 -4 6 -6 35 -13 64
-16 30 -3 61 -11 70 -19 8 -8 23 -14 32 -14 9 0 21 -9 27 -20 8 -14 21 -20 45
-20 19 0 35 -5 35 -11 0 -6 -9 -8 -22 -4 -18 5 -20 4 -8 -4 23 -16 40 -13 40
7 0 23 -43 45 -58 30 -6 -6 -12 -6 -17 2 -4 7 -1 16 6 21 10 6 8 10 -11 18
-19 7 -20 10 -7 10 10 1 16 5 13 10 -4 5 -16 4 -30 -2 -16 -8 -21 -14 -13 -19
8 -5 6 -8 -5 -8 -23 0 -34 20 -17 31 16 9 12 14 -18 23 -18 6 -22 4 -17 -8 5
-12 -1 -16 -22 -16 -22 0 -25 3 -14 10 18 11 13 16 -23 25 -23 6 -26 5 -20
-10z"/>
<path d="M556 732 c-72 -28 -90 -32 -98 -21 -8 12 -9 11 -5 -1 2 -8 -4 -20
-14 -25 -18 -10 -18 -11 0 -22 14 -9 37 -4 115 27 54 21 100 41 103 44 3 2 1
11 -4 19 -7 11 -23 8 -97 -21z"/>
<path d="M872 744 c2 -10 40 -31 103 -55 87 -34 102 -37 114 -24 13 12 11 15
-10 24 -206 80 -213 82 -207 55z"/>
<path d="M611 688 l-143 -51 7 -61 c25 -235 83 -363 219 -495 l66 -63 41 33
c58 45 134 140 169 208 37 74 70 205 77 302 5 68 4 77 -13 84 -20 8 -278 95
-279 94 0 0 -65 -23 -144 -51z m280 -7 c63 -22 122 -43 133 -47 16 -6 18 -14
11 -77 -9 -93 -39 -208 -74 -282 -31 -67 -112 -170 -167 -212 l-37 -27 -76 80
c-42 44 -90 107 -108 140 -42 78 -75 211 -77 303 l-1 74 120 42 c66 23 130 43
141 44 12 0 73 -17 135 -38z"/>
<path d="M625 666 l-120 -43 2 -66 c3 -90 36 -215 75 -290 18 -34 65 -95 105
-136 l73 -74 42 39 c137 123 192 235 217 439 5 44 8 81 6 83 -8 9 -251 92
-265 91 -8 0 -69 -19 -135 -43z m241 0 c168 -57 152 -43 142 -128 -20 -171
-65 -280 -159 -382 -80 -88 -81 -88 -151 -19 -76 75 -115 136 -143 226 -28 88
-51 235 -38 248 7 7 226 87 244 89 3 0 50 -15 105 -34z"/>
<path d="M735 620 c-3 -5 1 -10 9 -10 9 0 16 5 16 10 0 6 -4 10 -9 10 -6 0
-13 -4 -16 -10z"/>
<path d="M770 620 c0 -6 7 -10 15 -10 8 0 15 2 15 4 0 2 -7 6 -15 10 -8 3 -15
1 -15 -4z"/>
<path d="M595 570 c-18 -19 -17 -20 1 -20 11 0 25 9 32 20 10 16 10 20 -1 20
-8 0 -22 -9 -32 -20z"/>
<path d="M642 570 c-11 -18 -10 -20 17 -20 20 0 30 6 34 20 4 15 0 20 -17 20
-11 0 -27 -9 -34 -20z"/>
<path d="M706 574 c-9 -23 -8 -24 24 -24 23 0 30 4 30 20 0 25 -45 28 -54 4z"/>
<path d="M770 570 c0 -15 7 -20 29 -20 24 0 28 3 24 20 -3 13 -14 20 -29 20
-17 0 -24 -6 -24 -20z"/>
<path d="M834 574 c3 -9 6 -18 6 -20 0 -2 11 -4 25 -4 27 0 32 9 13 28 -18 18
-51 15 -44 -4z"/>
<path d="M900 570 c6 -11 20 -20 32 -20 20 0 21 1 3 20 -10 11 -24 20 -32 20
-11 0 -11 -4 -3 -20z"/>
<path d="M560 521 c-14 -28 -13 -31 14 -31 15 0 26 7 29 19 9 35 -25 44 -43
12z"/>
<path d="M620 531 c0 -5 -3 -16 -6 -25 -5 -13 1 -16 30 -16 32 0 36 3 36 25 0
21 -5 25 -30 25 -16 0 -30 -4 -30 -9z"/>
<path d="M697 534 c-4 -4 -7 -16 -7 -26 0 -14 8 -18 36 -18 31 0 35 3 32 23
-2 15 -11 23 -28 25 -14 2 -29 0 -33 -4z"/>
<path d="M777 533 c-4 -3 -7 -15 -7 -25 0 -14 8 -18 36 -18 29 0 35 3 30 16
-3 9 -6 20 -6 25 0 10 -43 12 -53 2z"/>
<path d="M850 516 c0 -22 4 -26 31 -26 26 0 30 3 27 23 -2 16 -11 23 -30 25
-24 3 -28 0 -28 -22z"/>
<path d="M924 526 c-8 -21 3 -36 27 -36 15 0 20 6 17 22 -4 27 -35 37 -44 14z"/>
<path d="M554 464 c3 -9 6 -20 6 -25 0 -10 33 -13 42 -3 14 14 -6 44 -29 44
-19 0 -24 -4 -19 -16z"/>
<path d="M614 464 c3 -9 6 -20 6 -25 0 -5 14 -9 30 -9 25 0 30 4 30 25 0 22
-4 25 -36 25 -29 0 -35 -3 -30 -16z"/>
<path d="M690 455 c0 -22 4 -25 35 -25 31 0 35 3 35 25 0 22 -4 25 -35 25 -31
0 -35 -3 -35 -25z"/>
<path d="M770 455 c0 -21 5 -25 29 -25 20 0 30 6 34 19 6 25 0 31 -35 31 -23
0 -28 -4 -28 -25z"/>
<path d="M847 461 c-6 -25 0 -31 35 -31 23 0 28 4 28 25 0 21 -5 25 -29 25
-20 0 -30 -6 -34 -19z"/>
<path d="M927 473 c-4 -3 -7 -15 -7 -25 0 -14 6 -19 23 -16 29 4 38 48 9 48
-10 0 -22 -3 -25 -7z"/>
<path d="M590 395 c22 -24 50 -34 50 -17 -1 18 -29 42 -50 42 l-23 0 23 -25z"/>
<path d="M630 412 c0 -5 9 -17 20 -27 24 -22 50 -14 43 14 -4 15 -13 21 -34
21 -16 0 -29 -4 -29 -8z"/>
<path d="M700 408 c1 -42 52 -51 58 -10 3 19 -1 22 -27 22 -18 0 -31 -5 -31
-12z"/>
<path d="M770 395 c0 -31 34 -35 50 -6 15 28 13 31 -20 31 -25 0 -30 -4 -30
-25z"/>
<path d="M836 404 c-10 -26 -7 -34 13 -34 10 0 26 10 35 23 l17 22 -6 -22 c-8
-30 6 -29 34 1 l23 24 -55 1 c-41 0 -57 -4 -61 -15z"/>
<path d="M693 348 c10 -5 22 -6 28 -3 5 4 16 1 24 -5 12 -10 15 -9 15 3 0 12
-10 16 -42 15 -31 0 -37 -3 -25 -10z"/>
<path d="M770 344 c0 -14 3 -14 15 -4 8 7 15 14 15 16 0 2 -7 4 -15 4 -8 0
-15 -7 -15 -16z"/>
<path d="M810 350 c0 -5 7 -7 15 -4 8 4 15 8 15 10 0 2 -7 4 -15 4 -8 0 -15
-4 -15 -10z"/>
<path d="M702 245 c-25 -51 -26 -55 -13 -55 5 0 15 16 21 35 6 19 15 35 18 35
4 0 15 -14 24 -30 10 -17 24 -33 33 -36 17 -7 71 13 62 22 -3 3 -15 0 -27 -6
-19 -10 -26 -9 -43 8 -18 18 -18 23 -7 37 10 12 24 15 50 11 32 -5 34 -4 16 9
-28 21 -52 19 -69 -6 l-15 -21 -7 21 c-10 31 -19 26 -43 -24z"/>
<path d="M286 578 c-25 -36 -20 -56 7 -30 25 23 56 29 73 12 5 -5 15 -6 23 0
25 15 -6 40 -50 40 -28 0 -42 -6 -53 -22z"/>
<path d="M1136 581 c-21 -23 -3 -33 32 -18 25 12 72 -4 72 -24 0 -8 -7 -6 -18
4 -21 19 -48 22 -58 6 -3 -6 -18 -8 -33 -5 -25 5 -25 5 -3 -6 15 -8 22 -20 22
-41 0 -29 0 -30 20 -12 19 17 20 17 20 0 0 -35 -28 -53 -71 -48 -39 6 -39 5
-39 -29 0 -19 -5 -39 -11 -45 -7 -7 -8 -24 -4 -43 5 -21 10 -29 17 -22 6 6 6
17 -2 32 -15 27 -5 38 20 22 24 -15 27 2 5 24 -17 18 -21 59 -4 49 6 -4 8 -13
5 -21 -3 -8 -1 -14 4 -14 20 0 109 -101 116 -132 14 -64 11 -79 -22 -104 -18
-14 -34 -34 -37 -44 -7 -28 12 -25 22 4 9 21 78 72 87 63 2 -2 -10 -16 -26
-32 -27 -26 -44 -85 -20 -70 6 4 8 10 5 14 -2 5 11 26 29 48 27 31 32 43 24
57 -8 14 -4 24 20 49 35 37 32 51 -20 96 -34 30 -37 37 -37 84 2 99 -6 158
-21 167 -25 16 -76 11 -94 -9z"/>
<path d="M313 552 c-22 -14 -43 -80 -43 -132 0 -48 -3 -54 -51 -101 -28 -27
-59 -49 -69 -49 -12 0 -19 -9 -22 -28 -4 -26 13 -57 25 -46 8 8 2 -50 -6 -63
-12 -19 3 -16 26 4 19 17 19 17 12 -6 -5 -17 -4 -21 5 -16 7 4 10 22 8 41 -2
19 0 34 5 34 5 0 4 7 -3 15 -7 9 -10 18 -7 22 4 3 2 12 -4 20 -17 20 3 15 30
-7 18 -15 22 -26 17 -46 -5 -19 0 -33 21 -58 15 -18 33 -41 40 -52 11 -18 12
-18 12 3 1 12 -13 36 -30 53 -17 17 -29 33 -26 36 11 11 77 -42 86 -69 12 -34
25 -36 17 -2 -4 14 -21 38 -38 54 -29 26 -30 30 -24 74 7 46 17 62 83 130 28
29 38 33 48 17 3 -5 -1 -10 -9 -10 -9 0 -16 -7 -16 -15 0 -18 12 -19 27 -4 18
18 35 1 22 -23 -7 -13 -7 -24 -1 -30 14 -14 25 38 12 62 -5 10 -10 33 -10 50
0 31 -1 31 -39 29 -28 -2 -46 2 -60 15 -22 20 -28 46 -11 46 6 0 10 -4 10 -9
0 -5 7 -12 16 -15 12 -5 14 -1 8 16 -4 15 0 26 15 37 l21 16 -23 1 c-12 1 -31
5 -42 8 -11 3 -25 3 -32 -2z m125 -152 c-2 -6 -8 -6 -18 0 -13 9 -13 11 0 20
15 10 25 0 18 -20z"/>
<path d="M1339 255 c-2 -23 -4 -29 -10 -40 -3 -5 -3 -32 1 -60 4 -27 8 -39 9
-25 1 22 3 23 12 8 14 -25 32 -23 19 2 -6 12 -7 20 -1 20 5 0 7 10 4 23 -4 18
-3 19 6 7 9 -13 11 -12 12 5 7 72 6 75 -23 75 -18 0 -28 -6 -29 -15z"/>
</g>
</svg>
