<svg width="174" height="201" viewBox="0 0 174 201" fill="none" xmlns="http://www.w3.org/2000/svg">
<path fill-rule="evenodd" clip-rule="evenodd" d="M144.358 0H29.5004C21.8849 0 14.5813 3.02525 9.19635 8.41022C3.81138 13.7952 0.786133 21.0988 0.786133 28.7143V172.286C0.786133 179.901 3.81138 187.205 9.19635 192.59C14.5813 197.975 21.8849 201 29.5004 201H144.358C151.973 201 159.277 197.975 164.662 192.59C170.047 187.205 173.072 179.901 173.072 172.286V28.7143C173.072 21.0988 170.047 13.7952 164.662 8.41022C159.277 3.02525 151.973 0 144.358 0ZM67.4894 66.7033C68.1569 66.0359 68.9492 65.5064 69.8213 65.1452C70.6933 64.784 71.628 64.5981 72.5719 64.5981C73.5157 64.5981 74.4504 64.784 75.3224 65.1452C76.1945 65.5064 76.9868 66.0359 77.6543 66.7033C78.3217 67.3707 78.8512 68.1631 79.2124 69.0351C79.5736 69.9072 79.7595 70.8418 79.7595 71.7857C79.7595 72.7296 79.5736 73.6643 79.2124 74.5363C78.8512 75.4084 78.3217 76.2007 77.6543 76.8681L54.0081 100.5L77.6543 124.132C79.0022 125.48 79.7595 127.308 79.7595 129.214C79.7595 131.121 79.0022 132.949 77.6543 134.297C76.3063 135.645 74.4781 136.402 72.5719 136.402C70.6656 136.402 68.8374 135.645 67.4894 134.297L38.7751 105.582C38.1066 104.916 37.5762 104.123 37.2143 103.251C36.8524 102.379 36.6662 101.444 36.6662 100.5C36.6662 99.5558 36.8524 98.6208 37.2143 97.7487C37.5762 96.8766 38.1066 96.0844 38.7751 95.4176L67.4894 66.7033V66.7033ZM106.369 66.7033C105.701 66.0359 104.909 65.5064 104.037 65.1452C103.165 64.784 102.23 64.5981 101.286 64.5981C100.342 64.5981 99.4076 64.784 98.5355 65.1452C97.6635 65.5064 96.8711 66.0359 96.2037 66.7033C95.5363 67.3707 95.0068 68.1631 94.6456 69.0351C94.2844 69.9072 94.0985 70.8418 94.0985 71.7857C94.0985 72.7296 94.2844 73.6643 94.6456 74.5363C95.0068 75.4084 95.5363 76.2007 96.2037 76.8681L119.85 100.5L96.2037 124.132C94.8558 125.48 94.0985 127.308 94.0985 129.214C94.0985 131.121 94.8558 132.949 96.2037 134.297C97.5516 135.645 99.3799 136.402 101.286 136.402C103.192 136.402 105.021 135.645 106.369 134.297L135.083 105.582C135.751 104.916 136.282 104.123 136.644 103.251C137.006 102.379 137.192 101.444 137.192 100.5C137.192 99.5558 137.006 98.6208 136.644 97.7487C136.282 96.8766 135.751 96.0844 135.083 95.4176L106.369 66.7033V66.7033Z" fill="black" fill-opacity="0.5"/>
</svg>
