<svg width="184" height="174" viewBox="0 0 184 174" fill="none" xmlns="http://www.w3.org/2000/svg">
<path d="M176.204 0.272461H8.09522C4.05238 0.272461 0.786133 3.3754 0.786133 7.2161V166.92C0.786133 170.76 4.05238 173.863 8.09522 173.863H176.204C180.247 173.863 183.513 170.76 183.513 166.92V7.2161C183.513 3.3754 180.247 0.272461 176.204 0.272461ZM54.9876 148.194H27.8755V65.3474H54.9876V148.194ZM41.443 54.0205C38.3349 54.0205 35.2967 53.145 32.7124 51.5046C30.1282 49.8642 28.114 47.5326 26.9246 44.8047C25.7352 42.0769 25.424 39.0752 26.0304 36.1793C26.6367 33.2834 28.1334 30.6233 30.3311 28.5355C32.5288 26.4476 35.3289 25.0258 38.3772 24.4498C41.4255 23.8737 44.5852 24.1694 47.4566 25.2993C50.3281 26.4292 52.7824 28.3427 54.5091 30.7977C56.2359 33.2528 57.1575 36.1391 57.1575 39.0917C57.1347 47.3373 50.0997 54.0205 41.443 54.0205ZM156.493 148.194H129.403V107.899C129.403 98.2862 129.221 85.9396 115.31 85.9396C101.218 85.9396 99.0477 96.3984 99.0477 107.204V148.194H71.9813V65.3474H97.9742V76.6742H98.3397C101.949 70.1645 110.788 63.286 123.99 63.286C151.445 63.286 156.493 80.4498 156.493 102.756V148.194V148.194Z" fill="black" fill-opacity="0.5"/>
</svg>
