<svg width="202" height="192" viewBox="0 0 202 192" fill="none" xmlns="http://www.w3.org/2000/svg">
<path d="M100.525 8.24486e-06C44.9922 -0.0220096 0.0136719 44.0577 0.0136719 98.4639C0.0136719 141.487 28.1505 178.058 67.3355 191.489C72.6126 192.788 71.8042 189.111 71.8042 186.601V169.538C41.332 173.038 40.0969 153.266 38.0534 149.964C33.9216 143.05 24.1534 141.289 27.0727 137.986C34.0114 134.485 41.0849 138.867 49.2812 150.734C55.2095 159.343 66.7741 157.89 72.6351 156.459C73.915 151.285 76.6546 146.661 80.4271 143.072C48.8546 137.524 35.6956 118.632 35.6956 96.174C35.6956 85.2752 39.3559 75.2571 46.5417 67.1765C41.9607 53.8557 46.9683 42.4504 47.642 40.7551C60.6887 39.6101 74.2519 49.9145 75.3073 50.7292C82.7176 48.7696 91.1834 47.7347 100.66 47.7347C110.181 47.7347 118.669 48.8136 126.147 50.7952C128.684 48.9017 141.259 40.0505 153.385 41.1294C154.037 42.8247 158.932 53.9658 154.62 67.1104C161.896 75.213 165.601 85.3192 165.601 96.2401C165.601 118.742 152.352 137.656 120.69 143.116C123.402 145.731 125.555 148.85 127.024 152.29C128.493 155.73 129.248 159.423 129.246 163.152V187.922C129.425 189.904 129.246 191.864 132.614 191.864C172.383 178.719 201.014 141.883 201.014 98.4859C201.014 44.0577 156.013 8.24486e-06 100.525 8.24486e-06V8.24486e-06Z" fill="black" fill-opacity="0.5"/>
</svg>
